#!OML:ASF G:\JayActor3\Patient Classification 1\Patient 1\Session 5\male.ASF
:FULLY-SPECIFIED
:DEGREES
931
root -46.4218 16.64 -8.02737 542.435 -82.6399 -547.248
lowerback 1.19678 -0.70616 -0.10651
upperback 1.98938 -0.955509 -0.955504
thorax 1.35158 -0.481738 -0.918937
lowerneck -5.78656 1.17142 2.73966
upperneck 4.70437 1.29772 0.537451
head 2.50536 0.709795 -0.249605
rclavicle -7.49636e-015 2.98177e-015
rhumerus -34.3361 -6.13748 -87.0574
rradius 30.0915
rwrist 0.224902
rhand -18.5644 -8.91422
rfingers 7.12502
rthumb 7.72562 -38.7531
lclavicle -7.49636e-015 2.98177e-015
lhumerus -30.6468 3.14939 84.0887
lradius 29.0172
lwrist 18.3055
lhand -10.6458 28.6894
lfingers 7.12502
lthumb 15.3617 58.0988
rfemur -24.0874 4.88566 22.1617
rtibia 67.686
rfoot -11.6645 -6.1254
rtoes 30.3646
lfemur -0.619954 10.1738 -23.5765
ltibia 23.1988
lfoot -16.9121 1.13817
ltoes -1.09391
932
root -46.5391 16.6269 -8.03535 542.995 -82.6362 -547.752
lowerback 1.24885 -0.730489 -0.183851
upperback 1.99638 -0.988948 -0.942971
thorax 1.33057 -0.499812 -0.862061
lowerneck -5.7978 1.19171 2.75246
upperneck 4.63225 1.32446 0.537019
head 2.48377 0.722619 -0.250992
rclavicle -7.1017e-015 5.86415e-015
rhumerus -34.3055 -6.1116 -87.0661
rradius 30.2615
rwrist 0.0826077
rhand -18.5299 -8.93565
rfingers 7.12502
rthumb 7.75887 -38.7733
lclavicle -7.1017e-015 5.86415e-015
lhumerus -30.4742 2.89787 84.2422
lradius 29.336
lwrist 18.5086
lhand -11.0611 30.5813
lfingers 7.12502
lthumb 14.9616 60.0209
rfemur -24.8658 5.18833 22.0237
rtibia 66.3617
rfoot -12.3027 -5.81592
rtoes 30.7062
lfemur -0.202587 10.1892 -23.6118
ltibia 23.1756
lfoot -17.2935 1.17964
ltoes -1.26267
933
root -46.6573 16.6166 -8.04368 543.49 -82.6301 -548.185
lowerback 1.28656 -0.748294 -0.246208
upperback 2.0069 -1.01355 -0.92997
thorax 1.32119 -0.513228 -0.813332
lowerneck -5.8155 1.20971 2.76525
upperneck 4.5572 1.34789 0.537592
head 2.46236 0.733797 -0.252169
rclavicle -1.89781e-014 -1.98785e-016
rhumerus -34.2728 -6.12387 -87.0594
rradius 30.4132
rwrist -0.0478237
rhand -18.481 -8.96966
rfingers 7.12502
rthumb 7.80614 -38.8056
lclavicle -1.89781e-014 -1.98785e-016
lhumerus -30.299 2.64142 84.401
lradius 29.6434
lwrist 18.6943
lhand -11.3203 32.0526
lfingers 7.12502
lthumb 14.712 61.5105
rfemur -25.5865 5.47714 21.8827
rtibia 64.9166
rfoot -12.8685 -5.51804
rtoes 30.9072
lfemur 0.281011 10.2086 -23.6355
ltibia 23.0246
lfoot -17.6178 1.20905
ltoes -1.41475
934
root -46.7764 16.6106 -8.0527 543.924 -82.6014 -548.544
lowerback 1.31468 -0.753864 -0.300907
upperback 2.01283 -1.0217 -0.915928
thorax 1.3126 -0.518259 -0.767937
lowerneck -5.8094 1.21459 2.82566
upperneck 4.45166 1.3545 0.482073
head 2.42724 0.735392 -0.280279
rclavicle -1.95296e-014 -2.38542e-015
rhumerus -34.2412 -6.16163 -87.0432
rradius 30.5369
rwrist -0.159327
rhand -18.3929 -9.30839
rfingers 7.12502
rthumb 7.89113 -39.1411
lclavicle -1.95296e-014 -2.38542e-015
lhumerus -30.1331 2.37954 84.5647
lradius 29.945
lwrist 18.8765
lhand -11.4473 33.0632
lfingers 7.12502
lthumb 14.5895 62.53
rfemur -26.2523 5.77259 21.7394
rtibia 63.3447
rfoot -13.3395 -5.26858
rtoes 30.9891
lfemur 0.83615 10.2435 -23.6499
ltibia 22.7231
lfoot -17.8723 1.23822
ltoes -1.55738
935
root -46.8965 16.6079 -8.06191 544.33 -82.5703 -548.881
lowerback 1.33622 -0.753915 -0.346694
upperback 2.02935 -1.02246 -0.903522
thorax 1.31849 -0.519516 -0.729434
lowerneck -5.83941 1.2193 2.88312
upperneck 4.36226 1.3593 0.430762
head 2.40415 0.736388 -0.306389
rclavicle -4.11352e-015 -3.97569e-015
rhumerus -34.195 -6.21744 -87.0222
rradius 30.6386
rwrist -0.25826
rhand -18.278 -9.88351
rfingers 7.12502
rthumb 8.00207 -39.712
lclavicle -4.11352e-015 -3.97569e-015
lhumerus -29.9584 2.11009 84.7359
lradius 30.2323
lwrist 19.0759
lhand -11.4312 33.4068
lfingers 7.12502
lthumb 14.605 62.8725
rfemur -26.8583 6.05482 21.5899
rtibia 61.6462
rfoot -13.6954 -5.1001
rtoes 30.8462
lfemur 1.48327 10.2844 -23.6587
ltibia 22.2676
lfoot -18.0546 1.26729
ltoes -1.71308
936
root -47.0172 16.6083 -8.07151 544.654 -82.5285 -549.138
lowerback 1.3593 -0.748059 -0.380163
upperback 2.04548 -1.01532 -0.89088
thorax 1.32296 -0.516651 -0.697575
lowerneck -5.86196 1.22711 2.93719
upperneck 4.2656 1.36851 0.384062
head 2.37728 0.739529 -0.330299
rclavicle 1.21989e-015 3.08116e-015
rhumerus -34.144 -6.28144 -86.9987
rradius 30.7044
rwrist -0.329243
rhand -18.153 -10.6431
rfingers 7.12502
rthumb 8.12265 -40.467
lclavicle 1.21989e-015 3.08116e-015
lhumerus -29.7897 1.84669 84.9051
lradius 30.5094
lwrist 19.2834
lhand -11.4243 33.7365
lfingers 7.12502
lthumb 14.6117 63.2018
rfemur -27.4135 6.34354 21.4384
rtibia 59.8337
rfoot -13.9537 -4.98327
rtoes 30.6887
lfemur 2.22519 10.3247 -23.6579
ltibia 21.6401
lfoot -18.1546 1.31219
ltoes -1.88376
937
root -47.1384 16.6106 -8.08145 544.899 -82.4815 -549.318
lowerback 1.38055 -0.737641 -0.400922
upperback 2.0642 -1.00204 -0.877387
thorax 1.33097 -0.510558 -0.672034
lowerneck -5.81388 1.2255 3.03761
upperneck 4.09358 1.36778 0.283755
head 2.31331 0.735985 -0.380022
rclavicle -9.34366e-015 -5.96354e-016
rhumerus -34.0872 -6.34237 -86.9786
rradius 30.7469
rwrist -0.380029
rhand -18.0252 -11.5185
rfingers 7.12502
rthumb 8.24598 -41.3375
lclavicle -9.34366e-015 -5.96354e-016
lhumerus -29.619 1.59589 85.0679
lradius 30.776
lwrist 19.4758
lhand -11.3797 34.0912
lfingers 7.12502
lthumb 14.6547 63.5534
rfemur -27.9311 6.64809 21.2812
rtibia 57.9338
rfoot -14.1236 -4.909
rtoes 30.604
lfemur 3.07432 10.3557 -23.6483
ltibia 20.8235
lfoot -18.1625 1.3783
ltoes -2.09282
938
root -47.2597 16.6166 -8.09163 545.081 -82.4358 -549.434
lowerback 1.40193 -0.725771 -0.409912
upperback 2.08717 -0.986809 -0.863151
thorax 1.34307 -0.503357 -0.652371
lowerneck -5.73959 1.21857 3.15486
upperneck 3.88415 1.36106 0.161277
head 2.23268 0.728639 -0.439924
rclavicle -6.23765e-015 7.95139e-016
rhumerus -34.0115 -6.39935 -86.9628
rradius 30.7612
rwrist -0.407233
rhand -17.9143 -12.3429
rfingers 7.12502
rthumb 8.35308 -42.1577
lclavicle -6.23765e-015 7.95139e-016
lhumerus -29.4454 1.3478 85.2304
lradius 31.0299
lwrist 19.6402
lhand -11.3203 34.4364
lfingers 7.12502
lthumb 14.7119 63.8944
rfemur -28.4116 6.96186 21.1154
rtibia 56.0016
rfoot -14.2946 -4.76962
rtoes 30.5144
lfemur 4.04333 10.365 -23.6337
ltibia 19.781
lfoot -18.0548 1.47151
ltoes -2.34448
939
root -47.381 16.6269 -8.10189 545.253 -82.392 -549.541
lowerback 1.42641 -0.712768 -0.411752
upperback 2.10665 -0.970038 -0.850365
thorax 1.34971 -0.495259 -0.638123
lowerneck -5.63181 1.20758 3.27737
upperneck 3.65069 1.35022 0.0308398
head 2.13842 0.718804 -0.503333
rclavicle -3.70182e-014 5.46658e-015
rhumerus -33.9382 -6.45332 -86.9476
rradius 30.7565
rwrist -0.41623
rhand -17.8288 -13.0043
rfingers 7.12502
rthumb 8.43551 -42.8159
lclavicle -3.70182e-014 5.46658e-015
lhumerus -29.2834 1.10655 85.391
lradius 31.2689
lwrist 19.7828
lhand -11.2555 34.7794
lfingers 7.12502
lthumb 14.7743 64.2328
rfemur -28.8712 7.27689 20.9346
rtibia 54.0781
rfoot -14.4215 -4.8176
rtoes 30.1282
lfemur 5.12126 10.3528 -23.6212
ltibia 18.5375
lfoot -17.8441 1.57549
ltoes -2.60889
940
root -47.502 16.642 -8.11242 545.475 -82.3465 -549.689
lowerback 1.45215 -0.697531 -0.416364
upperback 2.11658 -0.950226 -0.840944
thorax 1.34585 -0.485598 -0.625668
lowerneck -5.56407 1.20701 3.3403
upperneck 3.4738 1.35191 -0.0284173
head 2.06922 0.716888 -0.533133
rclavicle -1.97884e-014 6.55989e-015
rhumerus -33.8697 -6.51906 -86.9276
rradius 30.7259
rwrist -0.399647
rhand -17.7764 -13.4307
rfingers 7.12502
rthumb 8.48612 -43.2402
lclavicle -1.97884e-014 6.55989e-015
lhumerus -29.1387 0.872984 85.5493
lradius 31.4947
lwrist 19.8984
lhand -11.1888 35.1227
lfingers 7.12502
lthumb 14.8386 64.5713
rfemur -29.335 7.58742 20.7356
rtibia 52.2065
rfoot -14.5079 -5.10002
rtoes 29.1738
lfemur 6.28316 10.3301 -23.6185
ltibia 17.114
lfoot -17.5369 1.68311
ltoes -2.85564
941
root -47.6221 16.6537 -8.12319 545.798 -82.3039 -549.933
lowerback 1.47693 -0.68375 -0.430161
upperback 2.12388 -0.932363 -0.836542
thorax 1.33988 -0.477002 -0.613203
lowerneck -5.55916 1.21749 3.3509
upperneck 3.36398 1.366 -0.0254273
head 2.03257 0.722807 -0.533526
rclavicle 2.2312e-014 0
rhumerus -33.7945 -6.59273 -86.9055
rradius 30.6598
rwrist -0.385246
rhand -17.7943 -13.5544
rfingers 7.12502
rthumb 8.46883 -43.3646
lclavicle 2.2312e-014 0
lhumerus -29.0051 0.654146 85.7045
lradius 31.7079
lwrist 20.002
lhand -11.127 35.4494
lfingers 7.12502
lthumb 14.8982 64.8937
rfemur -29.749 7.86415 20.5238
rtibia 50.3994
rfoot -14.6451 -5.45622
rtoes 28.3433
lfemur 7.48409 10.3043 -23.6319
ltibia 15.6014
lfoot -17.1806 1.78077
ltoes -3.05878
942
root -47.7417 16.6615 -8.13483 546.291 -82.2478 -550.336
lowerback 1.49715 -0.66492 -0.469279
upperback 2.11883 -0.907745 -0.839383
thorax 1.32411 -0.465265 -0.593951
lowerneck -5.54171 1.2207 3.36873
upperneck 3.2589 1.37089 -0.0341493
head 1.9953 0.723975 -0.539236
rclavicle -1.13276e-014 1.3418e-015
rhumerus -33.7307 -6.67111 -86.8799
rradius 30.562
rwrist -0.392549
rhand -17.8612 -13.5969
rfingers 7.12502
rthumb 8.40428 -43.4097
lclavicle -1.13276e-014 1.3418e-015
lhumerus -28.8975 0.453085 85.8532
lradius 31.9167
lwrist 20.0835
lhand -11.0643 35.7461
lfingers 7.12502
lthumb 14.9586 65.1859
rfemur -30.1228 8.11009 20.2953
rtibia 48.6541
rfoot -14.8322 -5.70073
rtoes 27.9413
lfemur 8.66514 10.295 -23.6704
ltibia 14.0993
lfoot -16.8256 1.86451
ltoes -3.20695
